<?xml version="1.0" encoding="UTF-8" standalone="no"?>
<!-- Created with Inkscape (http://www.inkscape.org/) -->

<svg
   xmlns:dc="http://purl.org/dc/elements/1.1/"
   xmlns:cc="http://creativecommons.org/ns#"
   xmlns:rdf="http://www.w3.org/1999/02/22-rdf-syntax-ns#"
   xmlns:svg="http://www.w3.org/2000/svg"
   xmlns="http://www.w3.org/2000/svg"
   xmlns:sodipodi="http://sodipodi.sourceforge.net/DTD/sodipodi-0.dtd"
   xmlns:inkscape="http://www.inkscape.org/namespaces/inkscape"
   width="800"
   height="270"
   viewBox="0 0 800.00001 270.00001"
   id="svg4728"
   version="1.1"
   inkscape:version="0.91 r13725"
   sodipodi:docname="logo.svg">
  <defs
     id="defs4730" />
  <sodipodi:namedview
     id="base"
     pagecolor="#ffffff"
     bordercolor="#666666"
     borderopacity="1.0"
     inkscape:pageopacity="0.0"
     inkscape:pageshadow="2"
     inkscape:zoom="0.70710678"
     inkscape:cx="82.540837"
     inkscape:cy="453.19143"
     inkscape:document-units="px"
     inkscape:current-layer="layer1"
     showgrid="false"
     inkscape:window-width="1920"
     inkscape:window-height="1056"
     inkscape:window-x="0"
     inkscape:window-y="24"
     inkscape:window-maximized="1"
     units="px" />
  <metadata
     id="metadata4733">
    <rdf:RDF>
      <cc:Work
         rdf:about="">
        <dc:format>image/svg+xml</dc:format>
        <dc:type
           rdf:resource="http://purl.org/dc/dcmitype/StillImage" />
        <dc:title></dc:title>
      </cc:Work>
    </rdf:RDF>
  </metadata>
  <g
     inkscape:label="Ebene 1"
     inkscape:groupmode="layer"
     id="layer1"
     transform="translate(0,-782.36216)">
    <path
       style="font-style:normal;font-variant:normal;font-weight:bold;font-stretch:expanded;font-size:32px;line-height:125%;font-family:Comfortaa;-inkscape-font-specification:'Comfortaa, Bold Expanded';text-align:center;letter-spacing:0px;word-spacing:0px;writing-mode:lr-tb;text-anchor:middle;fill:#d40000;fill-opacity:1;stroke:none;stroke-width:1px;stroke-linecap:butt;stroke-linejoin:miter;stroke-opacity:1"
       d="m 100.4794,792.06648 c -1.914281,0.38583 -3.8524,1.0702 -5.849016,2.33238 l -8.45057,19.75396 3.193631,-15.4484 c -0.653046,0.64304 -1.293928,1.18961 -1.955646,1.91991 -3.385172,11.39729 -23.97245,66.29207 -61.773484,164.68801 l -15.142842,40.97876 0.610055,0.395 -6.1002033,18.1206 1.5968246,0.5879 -1.0047385,3.7682 1.2918067,1.1483 -1.7224089,3.4632 1.3456285,1.5423 1.3456285,1.5433 c 0,0 1.0691616,0.9186 1.3456381,1.5433 0.4401096,0.993 0.2810053,1.9006 0.3768169,3.2289 0.7086224,-0.3399 0.9688574,-1.6865 0.9688574,-1.6865 0.287344,-0.9729 2.727148,-3.3906 2.727148,-3.3906 l 1.596816,1.3098 -0.574136,1.1483 4.341912,1.7399 c 0,0 -1.693032,1.9594 -1.237985,2.0816 0.455084,0.1195 1.816237,0.496 2.816851,0.6798 l 1.865951,0 c 0.838975,0 1.7118,-0.1287 2.619495,-0.3215 l 1.901824,-3.014 1.453282,1.0224 -0.699711,1.1483 c 1.689963,-0.6522 3.484859,-1.626 5.382532,-2.8707 l 3.893361,-5.3289 32.833423,-86.60465 67.371229,0 27.23565,70.74385 c 2.18218,9.853 5.50933,16.7325 9.90381,20.813 l -1.07644,-11.716 4.23419,14.0659 c 1.75253,0.9911 3.6527,1.5974 5.68753,1.8482 l 0.37664,-1.7941 12.4695,-1.3816 c 4.63847,-2.8927 6.9973,-7.2836 6.9973,-13.2051 l 0,-2.1891 c -0.56404,-3.8361 -26.45896,-72.50102 -77.68781,-205.98908 -3.31244,-13.94738 -8.50245,-22.46297 -15.51962,-25.63863 l -8.23525,5.92049 -0.75354,-6.96129 z m 2.67331,66.79732 20.48944,53.64546 -40.279195,0 19.789755,-53.64546 z"
       id="path5281"
       inkscape:connector-curvature="0" />
    <path
       inkscape:connector-curvature="0"
       id="path5283"
       style="font-style:normal;font-variant:normal;font-weight:bold;font-stretch:expanded;font-size:32px;line-height:125%;font-family:Comfortaa;-inkscape-font-specification:'Comfortaa, Bold Expanded';text-align:center;letter-spacing:0px;word-spacing:0px;writing-mode:lr-tb;text-anchor:middle;fill:#000000;fill-opacity:1;stroke:none;stroke-width:1px;stroke-linecap:butt;stroke-linejoin:miter;stroke-opacity:1"
       d="m 243.03586,968.77056 53.2364,-142.23497 q 6.09572,-5.82506 11.7851,-5.82506 l 0.54185,0 q 11.24334,0 13.95257,14.76595 l -65.0215,175.42192 q -2.98015,13.1405 -14.2235,13.1405 l -0.4066,0 q -12.46245,0 -17.88091,-22.8937 -61.22858,-161.74055 -61.22858,-165.53348 l 0,-1.08369 q 0,-11.65012 14.62984,-13.8175 11.7851,0 18.01633,24.38306 l 46.59874,123.67697 z" />
    <path
       inkscape:connector-curvature="0"
       id="path5285"
       style="font-style:normal;font-variant:normal;font-weight:bold;font-stretch:expanded;font-size:32px;line-height:125%;font-family:Comfortaa;-inkscape-font-specification:'Comfortaa, Bold Expanded';text-align:center;letter-spacing:0px;word-spacing:0px;writing-mode:lr-tb;text-anchor:middle;fill:#000000;fill-opacity:1;stroke:none;stroke-width:1px;stroke-linecap:butt;stroke-linejoin:miter;stroke-opacity:1"
       d="m 463.16078,969.3124 0,-134.37777 q 2.4383,-12.86905 13.27522,-12.86905 l 1.49003,0 q 10.97242,0 13.27522,13.27479 l 0,174.47443 q 0,11.7853 -14.49433,14.2241 -8.26319,0 -21.40291,-19.5065 l -99.29329,-126.79194 0,132.48094 q 0,10.9721 -13.54615,13.2756 l -0.67709,0 q -11.24334,0 -13.81707,-13.8175 l 0,-172.57748 q 1.62554,-15.03644 12.73338,-15.03644 l 2.03188,0 q 9.07596,0 14.62984,11.92061 7.1795,8.12768 105.79544,135.32621 z" />
    <path
       inkscape:connector-curvature="0"
       id="path5287"
       style="font-style:normal;font-variant:normal;font-weight:bold;font-stretch:expanded;font-size:32px;line-height:125%;font-family:Comfortaa;-inkscape-font-specification:'Comfortaa, Bold Expanded';text-align:center;letter-spacing:0px;word-spacing:0px;writing-mode:lr-tb;text-anchor:middle;fill:#000000;fill-opacity:1;stroke:none;stroke-width:1px;stroke-linecap:butt;stroke-linejoin:miter;stroke-opacity:1"
       d="m 601.19596,821.38849 q 32.23983,0 58.65485,18.42276 3.79293,5.1471 3.79293,9.61711 l 0,0.53751 q 0,11.24352 -13.95258,13.8175 -2.98015,0 -21.94475,-8.94089 -11.10784,-4.33476 -21.40292,-4.33476 l -8.2631,0 q -26.82137,0 -51.61086,26.14471 -15.98445,21.94432 -15.98445,44.9732 l 0,2.03128 q 0,37.65871 34.94905,61.63518 18.15184,10.15982 36.30367,10.15982 l 2.03197,0 q 17.88091,0 33.86536,-8.66953 l 0,-40.09659 -33.32351,0 q -13.27523,-2.30263 -13.27523,-13.81751 l 0,-0.67622 q 2.3028,-13.54615 13.68157,-13.54615 l 47.68243,0 q 10.97242,0 13.27522,13.54615 l 0,57.02993 q 0,15.03561 -8.2631,18.96461 -26.95688,15.8488 -52.69455,15.8488 l -2.98016,0 q -50.12073,0 -83.85059,-46.32829 -15.98446,-26.41433 -15.98446,-54.99692 0,-50.93351 45.24413,-84.25746 27.90506,-17.06771 54.04908,-17.06771 z" />
    <path
       inkscape:connector-curvature="0"
       id="path5289"
       style="font-style:normal;font-variant:normal;font-weight:bold;font-stretch:expanded;font-size:32px;line-height:125%;font-family:Comfortaa;-inkscape-font-specification:'Comfortaa, Bold Expanded';text-align:center;letter-spacing:0px;word-spacing:0px;writing-mode:lr-tb;text-anchor:middle;fill:#000000;fill-opacity:1;stroke:none;stroke-width:1px;stroke-linecap:butt;stroke-linejoin:miter;stroke-opacity:1"
       d="m 684.23388,821.52373 42.67031,0 q 29.5306,0 48.08886,30.88522 6.09573,12.05585 6.09573,25.06015 l 0,2.03214 q 0,28.98832 -28.17599,47.54719 l -1.35461,0.67622 q 44.9732,77.61925 44.9732,80.46375 l 0,2.5739 q 0,10.9722 -13.54614,13.2748 l -0.81234,0 q -9.88864,0 -18.9646,-19.6417 l -40.77386,-69.62675 -22.75752,0 0,75.99365 q 0,10.9722 -13.54615,13.2748 l -0.81233,0 q -11.24335,0 -13.81707,-13.9519 l 0,-173.39065 q 1.62553,-15.17168 12.73337,-15.17168 z m 15.4426,27.63414 0,57.5709 25.06033,0 q 21.13199,0 27.90506,-22.89277 l 0.4066,-3.65767 0,-3.79292 q 0,-16.66198 -18.9646,-25.46676 -5.28304,-1.76078 -17.47457,-1.76078 l -16.93264,0 z" />
  </g>
</svg>
