<?xml version="1.0" encoding="UTF-8" standalone="no"?>
<!-- Created with Inkscape (http://www.inkscape.org/) -->

<svg
   xmlns:dc="http://purl.org/dc/elements/1.1/"
   xmlns:cc="http://creativecommons.org/ns#"
   xmlns:rdf="http://www.w3.org/1999/02/22-rdf-syntax-ns#"
   xmlns:svg="http://www.w3.org/2000/svg"
   xmlns="http://www.w3.org/2000/svg"
   xmlns:sodipodi="http://sodipodi.sourceforge.net/DTD/sodipodi-0.dtd"
   xmlns:inkscape="http://www.inkscape.org/namespaces/inkscape"
   width="24"
   height="15"
   viewBox="0 0 24 15"
   id="svg4183"
   version="1.1"
   inkscape:version="0.91 r13725"
   sodipodi:docname="patrol.svg"
   inkscape:export-filename="/home/sven/ideaprojects/avngr/web/image/patrol.png"
   inkscape:export-xdpi="90"
   inkscape:export-ydpi="90">
  <defs
     id="defs4185" />
  <sodipodi:namedview
     id="base"
     pagecolor="#ffffff"
     bordercolor="#666666"
     borderopacity="1.0"
     inkscape:pageopacity="0.0"
     inkscape:pageshadow="2"
     inkscape:zoom="22.4"
     inkscape:cx="1.5197841"
     inkscape:cy="18.274686"
     inkscape:document-units="px"
     inkscape:current-layer="layer1"
     showgrid="false"
     units="px"
     inkscape:window-width="1920"
     inkscape:window-height="1056"
     inkscape:window-x="0"
     inkscape:window-y="24"
     inkscape:window-maximized="1" />
  <metadata
     id="metadata4188">
    <rdf:RDF>
      <cc:Work
         rdf:about="">
        <dc:format>image/svg+xml</dc:format>
        <dc:type
           rdf:resource="http://purl.org/dc/dcmitype/StillImage" />
        <dc:title></dc:title>
      </cc:Work>
    </rdf:RDF>
  </metadata>
  <g
     inkscape:label="Ebene 1"
     inkscape:groupmode="layer"
     id="layer1"
     transform="translate(0,-1037.3622)">
    <ellipse
       ry="4.509943"
       rx="5.6696429"
       cy="1044.9893"
       cx="12.053572"
       id="ellipse4742"
       style="color:#000000;clip-rule:nonzero;display:inline;overflow:visible;visibility:visible;opacity:1;isolation:auto;mix-blend-mode:normal;color-interpolation:sRGB;color-interpolation-filters:linearRGB;solid-color:#000000;solid-opacity:1;fill:#b5c837;fill-opacity:1;fill-rule:evenodd;stroke:none;stroke-width:4;stroke-linecap:butt;stroke-linejoin:miter;stroke-miterlimit:4;stroke-dasharray:4, 16;stroke-dashoffset:0;stroke-opacity:1;marker:none;color-rendering:auto;image-rendering:auto;shape-rendering:auto;text-rendering:auto;enable-background:accumulate" />
    <path
       style="color:#000000;clip-rule:nonzero;display:inline;overflow:visible;visibility:visible;opacity:1;isolation:auto;mix-blend-mode:normal;color-interpolation:sRGB;color-interpolation-filters:linearRGB;solid-color:#000000;solid-opacity:1;fill:#c83737;fill-opacity:1;fill-rule:evenodd;stroke:none;stroke-width:4;stroke-linecap:butt;stroke-linejoin:miter;stroke-miterlimit:4;stroke-dasharray:4, 16;stroke-dashoffset:0;stroke-opacity:1;marker:none;color-rendering:auto;image-rendering:auto;shape-rendering:auto;text-rendering:auto;enable-background:accumulate"
       d="m 4.7363281,1037.6345 a 11.785714,9.375 0 0 0 -4.46874998,7.3497 11.785714,9.375 0 0 0 4.47265628,7.3398 l 3.0625,-3.1289 a 6.7908163,5.4017859 0 0 1 -2.2460938,-2.6465 6.7908163,5.4017859 0 0 1 -0.1640625,-0.5234 6.7908163,5.4017859 0 0 1 -0.097656,-0.5352 6.7908163,5.4017859 0 0 1 -0.03125,-0.5058 6.7908163,5.4017859 0 0 1 0,-0.01 6.7908163,5.4017859 0 0 1 0.03125,-0.5039 6.7908163,5.4017859 0 0 1 0.097656,-0.5352 6.7908163,5.4017859 0 0 1 0.1640625,-0.5234 6.7908163,5.4017859 0 0 1 2.2460938,-2.6484 l -3.0664063,-3.1329 z"
       id="path4761"
       inkscape:connector-curvature="0" />
    <path
       style="color:#000000;clip-rule:nonzero;display:inline;overflow:visible;visibility:visible;opacity:1;isolation:auto;mix-blend-mode:normal;color-interpolation:sRGB;color-interpolation-filters:linearRGB;solid-color:#000000;solid-opacity:1;fill:#c83737;fill-opacity:1;fill-rule:evenodd;stroke:none;stroke-width:4;stroke-linecap:butt;stroke-linejoin:miter;stroke-miterlimit:4;stroke-dasharray:4, 16;stroke-dashoffset:0;stroke-opacity:1;marker:none;color-rendering:auto;image-rendering:auto;shape-rendering:auto;text-rendering:auto;enable-background:accumulate"
       d="m 19.5,1037.7263 -3.027344,3.1543 a 6.7908163,5.4017859 0 0 1 0.771485,0.625 6.7908163,5.4017859 0 0 1 0.410156,0.4297 6.7908163,5.4017859 0 0 1 0.333984,0.4317 6.7908163,5.4017859 0 0 1 0.02148,0.027 6.7908163,5.4017859 0 0 1 0.0078,0.012 6.7908163,5.4017859 0 0 1 0.271484,0.4493 6.7908163,5.4017859 0 0 1 0.01563,0.025 6.7908163,5.4017859 0 0 1 0.0059,0.012 6.7908163,5.4017859 0 0 1 0.193359,0.4199 6.7908163,5.4017859 0 0 1 0.04687,0.1133 6.7908163,5.4017859 0 0 1 0.119141,0.3672 6.7908163,5.4017859 0 0 1 0.04687,0.1699 6.7908163,5.4017859 0 0 1 0.06445,0.3359 6.7908163,5.4017859 0 0 1 0.03125,0.209 6.7908163,5.4017859 0 0 1 0.03125,0.4707 6.7908163,5.4017859 0 0 1 -0.03125,0.4707 6.7908163,5.4017859 0 0 1 -0.0332,0.2148 6.7908163,5.4017859 0 0 1 -0.0625,0.3301 6.7908163,5.4017859 0 0 1 -0.05078,0.1777 6.7908163,5.4017859 0 0 1 -0.113282,0.3555 6.7908163,5.4017859 0 0 1 -0.05273,0.1269 6.7908163,5.4017859 0 0 1 -0.195312,0.4219 6.7908163,5.4017859 0 0 1 -0.294922,0.4863 6.7908163,5.4017859 0 0 1 -0.355469,0.461 6.7908163,5.4017859 0 0 1 -0.410156,0.4297 6.7908163,5.4017859 0 0 1 -0.462891,0.3945 6.7908163,5.4017859 0 0 1 -0.308594,0.2305 l 3.03125,3.1562 a 11.785714,9.375 0 0 0 4.335938,-7.2558 A 11.785714,9.375 0 0 0 19.5,1037.7263 Z"
       id="path4731"
       inkscape:connector-curvature="0" />
    <path
       style="color:#000000;clip-rule:nonzero;display:inline;overflow:visible;visibility:visible;opacity:1;isolation:auto;mix-blend-mode:normal;color-interpolation:sRGB;color-interpolation-filters:linearRGB;solid-color:#000000;solid-opacity:1;fill:#879529;fill-opacity:1;fill-rule:evenodd;stroke:none;stroke-width:4;stroke-linecap:butt;stroke-linejoin:miter;stroke-miterlimit:4;stroke-dasharray:4, 16;stroke-dashoffset:0;stroke-opacity:1;marker:none;color-rendering:auto;image-rendering:auto;shape-rendering:auto;text-rendering:auto;enable-background:accumulate"
       d="m 17.362854,1043.4407 c -1.094006,2.7512 -3.026416,3.319 -3.986337,3.7798 -1.116072,0.5357 -3.7785818,0.1752 -5.6089389,-0.2266 -0.3967473,-0.087 -0.6998769,-0.1909 -0.953125,-0.2969 0.8725575,1.6904 2.9411224,2.7949 5.2382809,2.7969 3.131279,10e-5 5.669799,-2.019 5.669922,-4.5097 -0.0019,-0.3066 -0.106299,-1.2436 -0.359802,-1.5435 z"
       id="ellipse4754"
       inkscape:connector-curvature="0"
       sodipodi:nodetypes="csccccc" />
    <path
       style="color:#000000;clip-rule:nonzero;display:inline;overflow:visible;visibility:visible;opacity:1;isolation:auto;mix-blend-mode:normal;color-interpolation:sRGB;color-interpolation-filters:linearRGB;solid-color:#000000;solid-opacity:1;fill:#a22d2d;fill-opacity:1;fill-rule:evenodd;stroke:none;stroke-width:4;stroke-linecap:butt;stroke-linejoin:miter;stroke-miterlimit:4;stroke-dasharray:4, 16;stroke-dashoffset:0;stroke-opacity:1;marker:none;color-rendering:auto;image-rendering:auto;shape-rendering:auto;text-rendering:auto;enable-background:accumulate"
       d="m 6.3398438,1039.2693 c -0.8545713,0.761 -2.5420718,2.2763 -2.7402344,2.6231 -0.2525382,0.442 -1.0751706,2.0201 -0.9804688,3.125 0.094702,1.1048 -0.4419216,3.0296 -1.1679687,3.3769 -0.07274,0.035 -0.2092135,0.071 -0.3085938,0.1074 a 11.785714,9.375 0 0 0 3.5976563,3.8223 l 3.0625,-3.1289 a 6.7908163,5.4017859 0 0 1 -2.2460938,-2.6465 6.7908163,5.4017859 0 0 1 -0.1640625,-0.5234 6.7908163,5.4017859 0 0 1 -0.097656,-0.5352 6.7908163,5.4017859 0 0 1 -0.03125,-0.5058 6.7908163,5.4017859 0 0 1 0,-0.01 6.7908163,5.4017859 0 0 1 0.03125,-0.5039 6.7908163,5.4017859 0 0 1 0.097656,-0.5352 6.7908163,5.4017859 0 0 1 0.1640625,-0.5234 6.7908163,5.4017859 0 0 1 2.2460938,-2.6484 l -1.4628906,-1.4942 z"
       id="path4763"
       inkscape:connector-curvature="0" />
    <path
       style="color:#000000;clip-rule:nonzero;display:inline;overflow:visible;visibility:visible;opacity:1;isolation:auto;mix-blend-mode:normal;color-interpolation:sRGB;color-interpolation-filters:linearRGB;solid-color:#000000;solid-opacity:1;fill:#a22d2d;fill-opacity:1;fill-rule:evenodd;stroke:none;stroke-width:4;stroke-linecap:butt;stroke-linejoin:miter;stroke-miterlimit:4;stroke-dasharray:4, 16;stroke-dashoffset:0;stroke-opacity:1;marker:none;color-rendering:auto;image-rendering:auto;shape-rendering:auto;text-rendering:auto;enable-background:accumulate"
       d="m 19.5,1037.7263 -3.027344,3.1543 c 0.278007,0.1914 0.536017,0.4004 0.771485,0.625 0.145631,0.1377 0.28252,0.2812 0.410156,0.4297 0.119757,0.1397 0.231208,0.2837 0.333984,0.4317 l 0.02148,0.027 0.0078,0.012 c 0.09914,0.1464 0.189727,0.2963 0.271484,0.4493 l 0.01563,0.025 0.0059,0.012 c 0.07171,0.1378 0.136221,0.2778 0.193359,0.4199 0.01615,0.038 0.03177,0.075 0.04687,0.1133 0.0451,0.1212 0.08484,0.2437 0.119141,0.3672 0.01677,0.056 0.0324,0.113 0.04687,0.1699 0.05555,0.4706 0.528136,0.6659 0.886719,0.9277 0.34724,0.3472 1.1365,1.3258 0.852395,2.2728 -0.238947,0.7965 -1.576148,2.9159 -2.313333,3.653 l 1.361328,1.418 c 2.740889,-1.7786 4.332659,-4.4423 4.335938,-7.2559 -0.0057,-2.8128 -1.598843,-5.4749 -4.339862,-7.252 z"
       id="path4779"
       inkscape:connector-curvature="0"
       sodipodi:nodetypes="cccccccccccccccscccc" />
    <rect
       style="color:#000000;display:inline;overflow:visible;visibility:visible;fill:#000000;fill-opacity:0.75294119;fill-rule:evenodd;stroke:none;stroke-width:2;stroke-linecap:butt;stroke-linejoin:miter;stroke-miterlimit:4;stroke-dasharray:none;stroke-dashoffset:0;stroke-opacity:1;marker:none;enable-background:accumulate"
       id="rect4147"
       width="2"
       height="2"
       x="11.02679"
       y="1044.0236" />
  </g>
</svg>
